<svg width="53" height="53" viewBox="0 0 53 53" fill="none" xmlns="http://www.w3.org/2000/svg">
<g clip-path="url(#clip0)">
<path d="M15.0808 0.0222397C13.5738 0.044548 12.4136 0.129738 11.3386 0.296062C7.64298 0.86602 5.56598 2.31221 5.04268 4.67926C5.02442 4.7604 3.89668 12.0522 2.53364 20.8855C1.17264 29.7189 0.0489523 37.0005 0.0388107 37.0675C0.0124426 37.2358 0.0144709 37.7307 0.040839 37.9113C0.150368 38.6293 0.497211 39.2804 1.08745 39.8686C2.12798 40.9071 3.96767 41.6839 5.79113 41.8563C6.07712 41.8827 7.89449 41.8847 20.9528 41.8807L35.79 41.8746L36.1044 41.8279C37.2341 41.6636 38.228 41.3533 39.4349 40.7894C40.662 40.2134 41.4835 39.6313 42.0839 38.9132C42.5098 38.4041 42.8181 37.7794 42.9378 37.175C42.9702 37.0208 43.8728 30.9927 43.8728 30.9399C43.8728 30.9359 41.3273 30.9318 38.2179 30.9318H32.5629L32.3094 32.4287L32.0558 33.9236L22.0217 33.9297C13.0992 33.9337 11.9876 33.9297 11.9876 33.9033C11.9876 33.8871 12.8456 28.1165 13.8943 21.0782C14.9429 14.042 15.811 8.21462 15.8232 8.1274L15.8455 7.97123H25.9141H35.9827L35.9705 8.02599C35.9644 8.05844 35.8569 8.71156 35.7312 9.48232L35.502 10.8819L36.7311 10.894C37.4065 10.9001 39.9785 10.9082 42.4469 10.9103L46.9315 10.9123L46.9437 10.8555C46.9741 10.7034 47.5826 6.62848 47.7368 5.54738C47.893 4.446 47.897 4.40747 47.8828 4.11945C47.822 2.8842 46.9802 1.85584 45.3839 1.05871C44.1609 0.448185 42.8303 0.0952568 41.4693 0.0202103C41.0494 -0.0021019 16.5534 -0.0021019 15.0808 0.0222397Z" fill="#F2F2F2"/>
<path d="M35.7657 13.5573C34.5588 13.6344 33.3743 14.0928 32.4088 14.8575C32.139 15.0684 31.6543 15.5552 31.4393 15.827C30.6584 16.8128 30.2203 17.9547 30.1371 19.2184C30.1107 19.618 30.1229 19.7458 30.2101 19.9344C30.3115 20.1555 30.5428 20.338 30.7902 20.3908C30.8734 20.407 33.0051 20.411 39.4004 20.407C47.3839 20.4009 47.9133 20.3968 48.1324 20.3644C49.396 20.1717 50.4751 19.6322 51.3493 18.76C52.3553 17.7539 52.9232 16.4599 52.9922 15.0218C53.0044 14.7987 52.9983 14.7074 52.9719 14.5695C52.8746 14.0888 52.5399 13.7277 52.0571 13.5817C51.9415 13.5472 51.5683 13.5452 43.9743 13.5431C39.5952 13.5411 35.9016 13.5472 35.7657 13.5573Z" fill="#F2F2F2"/>
<path d="M31.0941 23.0823C29.1814 23.1858 27.5365 24.4494 26.9341 26.2789C26.7414 26.8631 26.6542 27.6562 26.7535 27.9219C26.8124 28.076 26.9138 28.1856 27.074 28.2647L27.2099 28.3316H33.7411C40.5806 28.3316 40.3615 28.3336 40.7895 28.2484C41.9396 28.0152 42.9659 27.2951 43.5967 26.2769C43.972 25.6684 44.1809 24.9889 44.2275 24.2141C44.2498 23.8531 44.1626 23.5833 43.9517 23.3683C43.8137 23.2283 43.6028 23.1208 43.406 23.0884C43.3168 23.0762 41.2966 23.0701 37.24 23.0722C33.9216 23.0742 31.155 23.0783 31.0941 23.0823Z" fill="#F2F2F2"/>
<path d="M18.8981 44.6656C18.4762 44.7285 18.2044 45.0875 18.2775 45.4851C18.3464 45.8563 18.6324 46.0672 19.0665 46.0672C19.5269 46.0652 19.8393 45.7751 19.8433 45.3431C19.8474 44.8948 19.4194 44.5865 18.8981 44.6656Z" fill="#F2F2F2"/>
<path d="M28.5994 47.4302C28.5994 49.4971 28.6034 49.8561 28.6298 50.0082C28.713 50.4849 28.9645 50.8297 29.36 51.0143C29.6399 51.1441 29.7555 51.1644 30.1815 51.1623C30.4918 51.1603 30.581 51.1542 30.6987 51.1218L30.8407 51.0812L30.8346 50.9453C30.8305 50.8703 30.8325 50.8094 30.8366 50.8094C30.8407 50.8094 30.9116 50.8358 30.9928 50.8703C31.6053 51.1238 32.368 51.2455 33.0252 51.1948C33.3903 51.1684 33.6113 51.1279 33.8933 51.0406C34.6519 50.8033 35.1427 50.3368 35.305 49.6979C35.3598 49.4829 35.3719 49.1523 35.3314 48.9596C35.2908 48.7628 35.1792 48.562 35.021 48.4038C34.7594 48.1422 34.4511 47.9982 33.6844 47.7771C32.9542 47.5682 32.7939 47.4992 32.6398 47.3329C32.3984 47.0712 32.5424 46.6615 32.942 46.4729C33.1874 46.3593 33.3132 46.337 33.7614 46.337C34.1123 46.337 34.1955 46.3431 34.378 46.3836C34.662 46.4485 34.8993 46.5337 35.1265 46.6534L35.3131 46.7528L35.5585 46.2619C35.8405 45.696 35.8425 45.769 35.5464 45.6271C35.0697 45.3979 34.5241 45.2924 33.8243 45.2924C32.9785 45.2924 32.3294 45.483 31.8386 45.8745C31.2159 46.3735 31.0151 47.3106 31.4005 47.9211C31.5627 48.1767 31.8609 48.3917 32.2808 48.556C32.3923 48.6006 32.7067 48.7 32.9785 48.7811C33.6823 48.986 33.8527 49.063 33.9866 49.2395C34.0332 49.3003 34.0454 49.3389 34.0515 49.4504C34.0738 49.8439 33.7412 50.0833 33.0901 50.1401C32.4146 50.1989 31.6074 50.0021 31.0901 49.6512L30.9745 49.5742L30.8244 49.85C30.652 50.1705 30.65 50.1705 30.3843 50.1563C30.2058 50.1462 30.0922 50.0954 30.003 49.9859C29.8732 49.8277 29.8772 49.921 29.8772 47.3552V45.0287H29.2383H28.5994V47.4302Z" fill="#F2F2F2"/>
<path d="M4.76482 45.3025C4.04476 45.406 3.45452 45.6899 2.98395 46.1605C2.43428 46.7102 2.15031 47.4059 2.14626 48.2233C2.14423 48.9109 2.33692 49.5113 2.72838 50.0366C3.42613 50.9737 4.74656 51.4098 6.04266 51.1299C6.38544 51.0569 6.78705 50.8926 7.03451 50.7242C7.19272 50.6187 7.45234 50.3936 7.54159 50.2861L7.62678 50.1867L7.29616 49.8825C7.11564 49.7161 6.92498 49.5417 6.87224 49.493L6.77488 49.4038L6.64101 49.5397C6.43412 49.7486 6.18058 49.9068 5.91082 49.994C5.48284 50.134 4.92708 50.0995 4.49505 49.9088C4.04679 49.71 3.71415 49.3125 3.55797 48.7912C3.50726 48.6249 3.5032 48.5762 3.50117 48.2639C3.49915 48.0022 3.50726 47.8846 3.53363 47.7771C3.75674 46.8643 4.5417 46.3248 5.51732 46.412C5.9453 46.4505 6.30228 46.6148 6.63493 46.9292C6.76068 47.0469 6.77894 47.059 6.81139 47.0347C6.82965 47.0185 7.02234 46.844 7.23734 46.6432L7.6288 46.2822L7.5213 46.1686C6.96149 45.5723 6.18667 45.268 5.25161 45.2741C5.07921 45.2761 4.86015 45.2883 4.76482 45.3025Z" fill="#F2F2F2"/>
<path d="M20.4702 47.842L20.4763 49.9677L20.5229 50.1279C20.669 50.6492 21.0036 50.9778 21.531 51.1157C21.7785 51.1806 22.2957 51.1928 22.5553 51.138C22.7521 51.0975 23.0157 51.0001 23.0989 50.9352L23.1435 50.9007L22.9833 50.4666C22.894 50.2293 22.817 50.0306 22.8129 50.0265C22.8088 50.0224 22.7419 50.0468 22.6648 50.0813C22.5533 50.132 22.4884 50.1482 22.3525 50.1543C22.1192 50.1685 22.0219 50.1401 21.9042 50.0204C21.744 49.8622 21.744 49.8561 21.744 48.7466V47.7872H22.2916H22.8393V47.2903V46.7934H22.2916H21.744V46.2559V45.7184H21.1051H20.4641L20.4702 47.842Z" fill="#F2F2F2"/>
<path d="M9.40137 46.6615C8.70363 46.771 8.16207 47.1361 7.84159 47.7101C7.47853 48.3612 7.45621 49.3084 7.7848 49.9879C8.06877 50.5721 8.54542 50.9514 9.2026 51.1177C9.35675 51.1583 9.4318 51.1643 9.76647 51.1623C10.0951 51.1623 10.1762 51.1542 10.3141 51.1177C10.5575 51.0508 10.8192 50.9128 10.9895 50.7567L11.1356 50.6228V50.8682V51.1136H11.7542H12.3729L12.3688 48.9068L12.3627 46.702H11.7238H11.0849L11.0788 46.9191L11.0727 47.1361L10.9368 47.0245C10.5433 46.7041 9.97944 46.5702 9.40137 46.6615ZM10.2715 47.7162C10.667 47.8196 10.9551 48.1178 11.0666 48.5377C11.1133 48.7162 11.1153 49.0894 11.0687 49.2679C10.9794 49.6086 10.7786 49.8703 10.5048 50.0062C10.3445 50.0853 10.1295 50.14 9.97944 50.14C9.73605 50.14 9.40137 50.0143 9.22491 49.8581C8.92269 49.5883 8.78476 49.1036 8.87401 48.6127C8.95109 48.1746 9.26345 47.8298 9.67925 47.7182C9.82326 47.6777 10.1255 47.6777 10.2715 47.7162Z" fill="#F2F2F2"/>
<path d="M15.3932 46.6595C15.0261 46.7244 14.7381 46.8582 14.5028 47.0712L14.3608 47.2031V46.9475V46.6919H13.7523H13.1438V49.704V52.716H13.7827H14.4216V51.6917C14.4216 51.1279 14.4277 50.6674 14.4338 50.6674C14.4399 50.6674 14.4987 50.7161 14.5636 50.7749C14.7117 50.9068 14.9449 51.0346 15.1823 51.1055C15.3547 51.1583 15.3851 51.1623 15.7603 51.1623C16.1234 51.1623 16.1721 51.1583 16.3526 51.1076C16.9692 50.9413 17.4357 50.5701 17.7055 50.0285C17.884 49.6715 17.957 49.3389 17.955 48.8927C17.9489 47.7608 17.3059 46.915 16.2776 46.6899C16.0402 46.6372 15.6021 46.623 15.3932 46.6595ZM15.8293 47.7162C16.0342 47.771 16.168 47.846 16.3201 47.9982C16.5595 48.2375 16.6589 48.5012 16.6589 48.9028C16.6609 49.1746 16.6264 49.3267 16.5189 49.5478C16.3769 49.8378 16.097 50.0488 15.7664 50.1117C15.5758 50.1482 15.4825 50.1462 15.304 50.1096C14.7482 49.992 14.4196 49.5498 14.4176 48.917C14.4176 48.5316 14.5149 48.2476 14.7299 48.0184C14.8577 47.8825 15.0504 47.7669 15.235 47.7183C15.381 47.6797 15.6812 47.6777 15.8293 47.7162Z" fill="#F2F2F2"/>
<path d="M24.8269 46.6635C23.683 46.8481 22.9528 47.7913 23.0075 49.0143C23.0481 49.9109 23.4659 50.5964 24.1799 50.9473C24.5348 51.1197 24.8756 51.1867 25.3239 51.1684C25.8309 51.1502 26.1474 51.0285 26.478 50.7262L26.5916 50.6228V50.8682V51.1137H27.2001H27.8086V48.9028V46.6919H27.1696H26.5307V46.9272V47.1625L26.4009 47.0428C26.2305 46.8887 25.9932 46.7629 25.7458 46.7C25.4882 46.6331 25.1048 46.6189 24.8269 46.6635ZM25.7153 47.7162C26.1129 47.8095 26.409 48.1158 26.5206 48.5478C26.5611 48.706 26.5611 49.0934 26.5206 49.2659C26.4171 49.6979 26.0926 50.0204 25.6687 50.1096C25.4882 50.1482 25.3969 50.1482 25.2022 50.1096C24.9831 50.0691 24.8026 49.9737 24.6423 49.8155C24.3969 49.5742 24.2854 49.2435 24.3056 48.8217C24.332 48.2618 24.6423 47.846 25.1312 47.7182C25.2772 47.6797 25.5551 47.6797 25.7153 47.7162Z" fill="#F2F2F2"/>
<path d="M43.4973 46.6534C42.408 46.7629 41.5703 47.4951 41.3452 48.5377C41.2945 48.773 41.2925 49.2983 41.3432 49.4991C41.4243 49.8257 41.5582 50.0731 41.7691 50.2942C42.2539 50.8054 43.0774 51.0102 43.84 50.8094C44.0976 50.7404 44.2863 50.6431 44.5459 50.4443L44.6007 50.4017L44.5885 50.5092C44.556 50.8033 44.3775 51.1968 44.195 51.3794C43.9333 51.641 43.623 51.7445 43.0977 51.7445C42.5581 51.7445 42.0612 51.6065 41.6819 51.351C41.5825 51.284 41.5703 51.28 41.548 51.3124C41.3858 51.5477 40.9923 52.1785 40.9984 52.1968C41.0146 52.2353 41.3351 52.4158 41.5338 52.497C42.2579 52.7951 43.2539 52.854 44.055 52.645C44.3167 52.5761 44.6899 52.3874 44.9008 52.2191C45.3309 51.8743 45.6351 51.3571 45.8197 50.6593C45.8684 50.4687 46.6107 46.771 46.6107 46.7122C46.6107 46.7 46.3896 46.6919 46.0022 46.6919H45.3937L45.3836 46.7365C45.3775 46.7629 45.3511 46.9252 45.3227 47.0976C45.2923 47.27 45.2659 47.414 45.2619 47.4181C45.2578 47.4221 45.2396 47.3957 45.2193 47.3572C45.1584 47.2396 45.0225 47.0793 44.9008 46.982C44.6615 46.7933 44.3796 46.6919 43.9922 46.6514C43.767 46.629 43.7346 46.629 43.4973 46.6534ZM44.2964 47.7446C44.5682 47.8399 44.767 48.0326 44.842 48.274C44.8866 48.4241 44.8846 48.7466 44.838 48.9231C44.7264 49.3368 44.4282 49.6634 44.0429 49.7952C43.8522 49.8602 43.4547 49.8764 43.266 49.8257C42.7914 49.7019 42.5439 49.3612 42.5825 48.8866C42.6109 48.5357 42.7245 48.2801 42.9577 48.0489C43.1301 47.8765 43.2782 47.7933 43.5277 47.7264C43.7386 47.6696 44.1078 47.6797 44.2964 47.7446Z" fill="#F2F2F2"/>
<path d="M48.9739 46.6453C47.8969 46.7345 47.0409 47.3998 46.7448 48.3795C46.6515 48.6837 46.6251 48.8987 46.6373 49.2679C46.6454 49.5539 46.6535 49.6289 46.7002 49.7811C46.83 50.2151 47.0856 50.5559 47.4588 50.7973C48.1484 51.2435 49.2964 51.2962 50.1686 50.921C50.3288 50.852 50.5946 50.6999 50.6838 50.6248L50.7325 50.5863L50.4647 50.1705C50.3167 49.9413 50.1929 49.7547 50.1869 49.7547C50.1828 49.7547 50.1301 49.7912 50.0733 49.8358C49.9414 49.9332 49.6696 50.063 49.4911 50.1097C49.4141 50.1299 49.2437 50.1482 49.0835 50.1543C48.6332 50.1725 48.3533 50.0955 48.1423 49.8946C48.0368 49.7953 47.9679 49.6837 47.9293 49.5559C47.9131 49.493 47.9131 49.493 48.0166 49.4728C48.0754 49.4606 48.8198 49.3227 49.6737 49.1665C50.5276 49.0103 51.2456 48.8785 51.272 48.8724C51.3146 48.8622 51.3166 48.8541 51.3166 48.6229C51.3166 47.8521 51.0246 47.2801 50.4587 46.9394C50.0814 46.7122 49.5135 46.5986 48.9739 46.6453ZM49.4567 47.6148C49.7325 47.6736 49.9658 47.8521 50.0733 48.0854C50.1017 48.1483 50.126 48.2314 50.128 48.272L50.1301 48.343L49.0185 48.5438C48.406 48.6533 47.903 48.7405 47.8969 48.7365C47.8928 48.7324 47.9091 48.6594 47.9314 48.5783C48.0348 48.201 48.2884 47.8724 48.5865 47.7243C48.8583 47.5905 49.1626 47.5519 49.4567 47.6148Z" fill="#F2F2F2"/>
<path d="M37.5746 46.6798C37.2258 46.7467 36.8303 46.9171 36.5686 47.1159C36.2988 47.3207 36.0128 47.6676 35.8546 47.9799C35.6457 48.3957 35.5382 49.0225 35.597 49.4829C35.7005 50.3186 36.1934 50.9007 36.9641 51.1015C37.2562 51.1786 37.67 51.1826 37.9783 51.1137C38.3028 51.0406 38.6071 50.8743 38.8728 50.6228L39.0432 50.4626L39.104 50.5802C39.1851 50.7384 39.2845 50.852 39.4366 50.9514C39.6902 51.1177 40.0735 51.1928 40.4751 51.1542C40.682 51.136 40.8991 51.0914 40.9275 51.063C40.9417 51.0488 41.0573 50.138 41.0471 50.1259C41.0431 50.1218 41.0127 50.1279 40.9802 50.1421C40.9477 50.1543 40.8342 50.1644 40.7287 50.1664C40.5259 50.1685 40.4488 50.1441 40.3474 50.0529C40.2967 50.0042 40.2419 49.8439 40.2419 49.7364C40.2419 49.6959 40.3737 49.0022 40.536 48.1929C40.6983 47.3836 40.8301 46.7142 40.8301 46.7061C40.8301 46.6919 39.5928 46.7102 39.5746 46.7244C39.5705 46.7284 39.5421 46.8542 39.5117 47.0063C39.4813 47.1584 39.4529 47.2862 39.4468 47.2903C39.4407 47.2964 39.3941 47.2457 39.3433 47.1787C39.173 46.9617 38.9073 46.7954 38.5888 46.7102C38.3819 46.6554 37.7978 46.6372 37.5746 46.6798ZM38.4833 47.7162C38.8423 47.8095 39.0898 48.061 39.1649 48.4119C39.1953 48.56 39.1932 48.8298 39.1588 49.0083C39.0918 49.347 38.9843 49.5559 38.7632 49.775C38.5138 50.0224 38.2501 50.1279 37.8789 50.1259C37.1954 50.1238 36.8221 49.7243 36.8627 49.0346C36.9012 48.3612 37.2643 47.8663 37.8282 47.7183C37.9783 47.6777 38.3353 47.6777 38.4833 47.7162Z" fill="#F2F2F2"/>
<path d="M18.417 48.9028V51.1136H19.0559H19.6948V48.9028V46.6919H19.0559H18.417V48.9028Z" fill="#F2F2F2"/>
</g>
<defs>
<clipPath id="clip0">
<rect width="53" height="52.7769" fill="white"/>
</clipPath>
</defs>
</svg>
