<svg width="12" height="20" viewBox="0 0 12 20" fill="none" xmlns="http://www.w3.org/2000/svg">
<path fill-rule="evenodd" clip-rule="evenodd" d="M0.247883 12.7769C0.32626 12.6983 0.419368 12.636 0.521876 12.5934C0.624383 12.5509 0.734275 12.529 0.845258 12.529C0.95624 12.529 1.06613 12.5509 1.16864 12.5934C1.27115 12.636 1.36426 12.6983 1.44263 12.7769L5.90775 17.2437L10.3729 12.7769C10.5313 12.6184 10.7462 12.5294 10.9703 12.5294C11.1943 12.5294 11.4092 12.6184 11.5676 12.7769C11.7261 12.9353 11.8151 13.1502 11.8151 13.3742C11.8151 13.5983 11.7261 13.8132 11.5676 13.9716L6.50513 19.0341C6.42675 19.1127 6.33364 19.175 6.23114 19.2176C6.12863 19.2601 6.01874 19.282 5.90775 19.282C5.79677 19.282 5.68688 19.2601 5.58437 19.2176C5.48187 19.175 5.38876 19.1127 5.31038 19.0341L0.247883 13.9716C0.169307 13.8932 0.106966 13.8001 0.0644301 13.6976C0.0218943 13.5951 0 13.4852 0 13.3742C0 13.2633 0.0218943 13.1534 0.0644301 13.0509C0.106966 12.9484 0.169307 12.8552 0.247883 12.7769Z" fill="#F2F2F2"/>
<path fill-rule="evenodd" clip-rule="evenodd" d="M5.90771 0.717999C6.13149 0.717999 6.3461 0.806894 6.50434 0.965127C6.66257 1.12336 6.75146 1.33797 6.75146 1.56175V16.7492C6.75146 16.973 6.66257 17.1876 6.50434 17.3459C6.3461 17.5041 6.13149 17.593 5.90771 17.593C5.68394 17.593 5.46933 17.5041 5.31109 17.3459C5.15286 17.1876 5.06396 16.973 5.06396 16.7492V1.56175C5.06396 1.33797 5.15286 1.12336 5.31109 0.965127C5.46933 0.806894 5.68394 0.717999 5.90771 0.717999Z" fill="#F2F2F2"/>
</svg>
