<svg width="27" height="27" viewBox="0 0 27 27" fill="none" xmlns="http://www.w3.org/2000/svg">
<path d="M13.5 0C6.048 0 0 6.048 0 13.5C0 20.952 6.048 27 13.5 27H20.25V24.3H13.5C7.641 24.3 2.7 19.359 2.7 13.5C2.7 7.641 7.641 2.7 13.5 2.7C19.359 2.7 24.3 7.641 24.3 13.5V15.4305C24.3 16.497 23.3415 17.55 22.275 17.55C21.2085 17.55 20.25 16.497 20.25 15.4305V13.5C20.25 9.774 17.226 6.75 13.5 6.75C9.774 6.75 6.75 9.774 6.75 13.5C6.75 17.226 9.774 20.25 13.5 20.25C15.363 20.25 17.064 19.494 18.279 18.2655C19.1565 19.467 20.6685 20.25 22.275 20.25C24.9345 20.25 27 18.09 27 15.4305V13.5C27 6.048 20.952 0 13.5 0ZM13.5 17.55C11.259 17.55 9.45 15.741 9.45 13.5C9.45 11.259 11.259 9.45 13.5 9.45C15.741 9.45 17.55 11.259 17.55 13.5C17.55 15.741 15.741 17.55 13.5 17.55Z" fill="#F2F2F2"/>
</svg>
