<svg width="50" height="50" viewBox="0 0 50 50" fill="none" xmlns="http://www.w3.org/2000/svg">
<path d="M0 20C0 8.9543 8.95431 0 20 0H30C41.0457 0 50 8.95431 50 20V50H20C8.9543 50 0 41.0457 0 30V20Z" fill="#990000"/>
<path d="M30 15H20C17.2386 15 15 17.2386 15 20V30C15 32.7614 17.2386 35 20 35H30C32.7614 35 35 32.7614 35 30V20C35 17.2386 32.7614 15 30 15Z" stroke="#FAFAF9" stroke-width="2" stroke-linecap="round" stroke-linejoin="round"/>
<path d="M29.0002 24.3698C29.1236 25.2021 28.9815 26.052 28.594 26.7988C28.2065 27.5456 27.5933 28.1512 26.8418 28.5295C26.0903 28.9077 25.2386 29.0394 24.408 28.9057C23.5773 28.7721 22.81 28.3799 22.215 27.785C21.6201 27.1901 21.2279 26.4227 21.0943 25.592C20.9606 24.7614 21.0923 23.9097 21.4705 23.1582C21.8488 22.4067 22.4544 21.7936 23.2012 21.4061C23.948 21.0186 24.7979 20.8764 25.6302 20.9998C26.4791 21.1257 27.265 21.5213 27.8719 22.1281C28.4787 22.735 28.8743 23.5209 29.0002 24.3698Z" stroke="#FAFAF9" stroke-width="2" stroke-linecap="round" stroke-linejoin="round"/>
<path d="M30.5 19.5H30.51" stroke="#FAFAF9" stroke-width="2" stroke-linecap="round" stroke-linejoin="round"/>
</svg>
