<svg width="121" height="34" viewBox="0 0 121 34" fill="none" xmlns="http://www.w3.org/2000/svg">
<path fill-rule="evenodd" clip-rule="evenodd" d="M3.44347 0.207153C2.01793 0.207153 0.862305 1.36278 0.862305 2.78831V23.2135C0.862305 24.639 2.01793 25.7946 3.44347 25.7946H3.56217C3.94321 26.0164 4.38621 26.1435 4.85889 26.1435H30.8321C32.2577 26.1435 33.4133 24.9879 33.4133 23.5623V4.15349C33.4133 4.00111 33.4001 3.85182 33.3748 3.7067V2.78831C33.3748 1.36278 32.2191 0.207153 30.7936 0.207153H3.44347ZM33.3748 3.7067C33.1632 2.49411 32.1053 1.57233 30.8321 1.57233H4.85889C3.43335 1.57233 2.27773 2.72795 2.27773 4.15349V23.5623C2.27773 24.5152 2.79404 25.3475 3.56217 25.7946H30.7936C32.2191 25.7946 33.3748 24.639 33.3748 23.2135V3.7067Z" fill="#FF6600"/>
<path d="M6.22257 2.8865C5.16099 3.13973 3.97384 4.1967 3.51725 5.2977L3.25471 5.92528L3.22046 15.5811C3.18622 26.3049 3.1748 26.1398 3.92818 27.2628C4.31629 27.8574 4.90986 28.3748 5.53768 28.6941C6.30247 29.0685 7.14717 29.1015 15.4914 29.1015H23.7444V31.4687C23.7444 33.7037 23.7558 33.8358 23.9498 33.7367C24.0526 33.6707 24.8174 33.0761 25.6278 32.3935C26.4497 31.7219 27.6825 30.698 28.3902 30.1365L29.6573 29.1015H30.9586C33.173 29.1015 34.189 28.8042 35.125 27.8684C35.3875 27.6151 35.7528 27.0977 35.924 26.7343L36.2436 26.0737V15.8894V5.70508L35.8669 4.9674C35.456 4.15265 34.7483 3.47003 33.9036 3.08468L33.3899 2.84245L19.9775 2.82044C12.6035 2.82044 6.41662 2.84245 6.22257 2.8865ZM17.6032 9.28335L17.6374 12.9167L19.9204 10.4724C22.4887 7.71992 23.2307 6.9272 23.9727 6.1675L24.4863 5.63902L25.8333 5.67205L27.1688 5.70508L26.1187 6.86114C24.7945 8.31447 19.9204 13.6433 19.5551 14.0287L19.2812 14.315L21.1874 16.8363C24.6804 21.4495 27.5798 25.303 27.6711 25.4351C27.7396 25.5452 27.4428 25.5783 26.3355 25.5783H24.9201L23.185 23.3542C22.2262 22.1211 20.5825 20.0182 19.5323 18.675L17.6374 16.2307L17.6032 20.899L17.5803 25.5783H16.4389H15.2974V22.1101V18.6419H13.5281H11.7588V17.4859V16.3298H13.5281H15.2974V15.1737V14.0177H13.5281H11.7588V12.8066V11.5955H13.5281H15.2974V8.62275V5.65003H16.4389H17.5803L17.6032 9.28335Z" fill="#003399"/>
<path d="M57.5966 23H54.0252L51.226 18.1737V23H48.0085V11.7387H51.226V16.2432L53.8643 11.7387H57.4357L54.0895 17.2085L57.5966 23ZM61.326 23.2252C60.1248 23.2252 59.1006 22.8177 58.2533 22.0026C57.4168 21.1875 56.9985 20.1793 56.9985 18.9781C56.9985 17.7769 57.4168 16.7688 58.2533 15.9537C59.0899 15.1386 60.1141 14.731 61.326 14.731C62.5379 14.731 63.5622 15.1386 64.3987 15.9537C65.2353 16.7688 65.6536 17.7769 65.6536 18.9781C65.6536 20.1793 65.2353 21.1875 64.3987 22.0026C63.5622 22.8177 62.5379 23.2252 61.326 23.2252ZM60.3447 20.0077C60.6021 20.2651 60.9292 20.3938 61.326 20.3938C61.7228 20.3938 62.0446 20.2651 62.2913 20.0077C62.5487 19.7396 62.6774 19.3964 62.6774 18.9781C62.6774 18.5599 62.5487 18.222 62.2913 17.9646C62.0446 17.6965 61.7228 17.5624 61.326 17.5624C60.9292 17.5624 60.6021 17.6965 60.3447 17.9646C60.098 18.222 59.9747 18.5599 59.9747 18.9781C59.9747 19.3964 60.098 19.7396 60.3447 20.0077ZM66.5902 23V11.2561H69.5663V23H66.5902ZM74.7899 23.2252C73.5887 23.2252 72.5644 22.8177 71.7172 22.0026C70.8806 21.1875 70.4623 20.1793 70.4623 18.9781C70.4623 17.7769 70.8806 16.7688 71.7172 15.9537C72.5537 15.1386 73.578 14.731 74.7899 14.731C76.0018 14.731 77.026 15.1386 77.8626 15.9537C78.6991 16.7688 79.1174 17.7769 79.1174 18.9781C79.1174 20.1793 78.6991 21.1875 77.8626 22.0026C77.026 22.8177 76.0018 23.2252 74.7899 23.2252ZM73.8085 20.0077C74.0659 20.2651 74.3931 20.3938 74.7899 20.3938C75.1867 20.3938 75.5085 20.2651 75.7551 20.0077C76.0125 19.7396 76.1412 19.3964 76.1412 18.9781C76.1412 18.5599 76.0125 18.222 75.7551 17.9646C75.5085 17.6965 75.1867 17.5624 74.7899 17.5624C74.3931 17.5624 74.0659 17.6965 73.8085 17.9646C73.5619 18.222 73.4385 18.5599 73.4385 18.9781C73.4385 19.3964 73.5619 19.7396 73.8085 20.0077ZM89.5456 14.731C90.4787 14.731 91.208 15.026 91.7335 15.6158C92.2591 16.195 92.5218 17.0262 92.5218 18.1094V23H89.5456V18.5116C89.5456 17.9003 89.2721 17.5946 88.7252 17.5946C88.0924 17.5946 87.776 17.9914 87.776 18.7851V23H84.7998V18.5116C84.7998 17.9003 84.5263 17.5946 83.9794 17.5946C83.3466 17.5946 83.0302 17.9914 83.0302 18.7851V23H80.054V14.9563H83.0302V15.7124C83.5557 15.0581 84.285 14.731 85.2181 14.731C86.1404 14.731 86.8108 15.0635 87.229 15.7284C87.8082 15.0635 88.5804 14.731 89.5456 14.731ZM97.6643 23.2252C96.4631 23.2252 95.4389 22.8177 94.5916 22.0026C93.755 21.1875 93.3368 20.1793 93.3368 18.9781C93.3368 17.7769 93.755 16.7688 94.5916 15.9537C95.4281 15.1386 96.4524 14.731 97.6643 14.731C98.8762 14.731 99.9005 15.1386 100.737 15.9537C101.574 16.7688 101.992 17.7769 101.992 18.9781C101.992 20.1793 101.574 21.1875 100.737 22.0026C99.9005 22.8177 98.8762 23.2252 97.6643 23.2252ZM96.683 20.0077C96.9404 20.2651 97.2675 20.3938 97.6643 20.3938C98.0611 20.3938 98.3829 20.2651 98.6295 20.0077C98.8869 19.7396 99.0156 19.3964 99.0156 18.9781C99.0156 18.5599 98.8869 18.222 98.6295 17.9646C98.3829 17.6965 98.0611 17.5624 97.6643 17.5624C97.2675 17.5624 96.9404 17.6965 96.683 17.9646C96.4363 18.222 96.3129 18.5599 96.3129 18.9781C96.3129 19.3964 96.4363 19.7396 96.683 20.0077ZM108.06 14.731C108.94 14.731 109.642 15.0367 110.168 15.648C110.704 16.2486 110.972 17.1495 110.972 18.3507V23H107.996V18.6725C107.996 17.9539 107.664 17.5946 106.999 17.5946C106.645 17.5946 106.371 17.7072 106.178 17.9324C105.996 18.1577 105.905 18.4687 105.905 18.8655V23H102.928V14.9563H105.905V15.7445C106.398 15.0689 107.117 14.731 108.06 14.731ZM113.678 14.3449C113.228 14.3449 112.836 14.184 112.504 13.8623C112.182 13.5298 112.021 13.1437 112.021 12.704C112.021 12.2643 112.182 11.8835 112.504 11.5618C112.836 11.2293 113.228 11.0631 113.678 11.0631C114.118 11.0631 114.498 11.2293 114.82 11.5618C115.153 11.8835 115.319 12.2643 115.319 12.704C115.319 13.1437 115.153 13.5298 114.82 13.8623C114.498 14.184 114.118 14.3449 113.678 14.3449ZM112.182 23V14.9563H115.158V23H112.182Z" fill="#383838"/>
<path d="M51.8025 26.9775V30.9937H51.4008V27.5857L49.9951 29.938H49.9378L48.5321 27.5857V30.9937H48.1305V26.9775H48.6296L49.9665 29.2151L51.3033 26.9775H51.8025ZM55.066 30.6323C54.7753 30.9192 54.4195 31.0626 53.9988 31.0626C53.578 31.0626 53.2204 30.9192 52.9259 30.6323C52.6352 30.3416 52.4898 29.9839 52.4898 29.5594C52.4898 29.1348 52.6352 28.7791 52.9259 28.4922C53.2204 28.2015 53.578 28.0561 53.9988 28.0561C54.4195 28.0561 54.7753 28.2015 55.066 28.4922C55.3605 28.7791 55.5078 29.1348 55.5078 29.5594C55.5078 29.9839 55.3605 30.3416 55.066 30.6323ZM53.1955 30.3684C53.4136 30.5864 53.6813 30.6954 53.9988 30.6954C54.3163 30.6954 54.584 30.5864 54.802 30.3684C55.0201 30.1465 55.1291 29.8768 55.1291 29.5594C55.1291 29.2419 55.0201 28.9741 54.802 28.7561C54.584 28.5343 54.3163 28.4233 53.9988 28.4233C53.6813 28.4233 53.4136 28.5343 53.1955 28.7561C52.9775 28.9741 52.8685 29.2419 52.8685 29.5594C52.8685 29.8768 52.9775 30.1465 53.1955 30.3684ZM56.5201 28.6012C56.6961 28.2531 56.9982 28.0791 57.4266 28.0791V28.4463C57.1665 28.4463 56.9504 28.5228 56.7783 28.6758C56.6062 28.8288 56.5201 29.0698 56.5201 29.3987V30.9937H56.1414V28.125H56.5201V28.6012ZM59.0973 28.0561C59.5219 28.0561 59.8642 28.2072 60.1243 28.5094C60.3882 28.8078 60.5202 29.1616 60.5202 29.5708C60.5202 29.6129 60.5164 29.6722 60.5087 29.7487H57.9899C58.0282 30.0394 58.1506 30.2708 58.3571 30.4429C58.5675 30.6112 58.8257 30.6954 59.1317 30.6954C59.3497 30.6954 59.5372 30.6514 59.694 30.5634C59.8546 30.4716 59.9751 30.3531 60.0554 30.2077L60.3882 30.4028C60.262 30.6055 60.0899 30.7662 59.8718 30.8847C59.6538 31.0033 59.4052 31.0626 59.126 31.0626C58.6746 31.0626 58.3074 30.9211 58.0244 30.638C57.7413 30.355 57.5998 29.9954 57.5998 29.5594C57.5998 29.131 57.7394 28.7733 58.0186 28.4865C58.2979 28.1996 58.6574 28.0561 59.0973 28.0561ZM59.0973 28.4233C58.7989 28.4233 58.5484 28.5132 58.3457 28.693C58.1468 28.869 58.0282 29.0985 57.9899 29.3815H60.13C60.0918 29.0793 59.9751 28.8441 59.78 28.6758C59.585 28.5075 59.3574 28.4233 59.0973 28.4233ZM64.0773 28.4922H63.2511V30.2307C63.2511 30.3875 63.2817 30.5003 63.3429 30.5692C63.4041 30.6342 63.4959 30.6686 63.6183 30.6724C63.7407 30.6724 63.8937 30.6686 64.0773 30.661V30.9937C63.6757 31.0549 63.3735 31.0263 63.1708 30.9077C62.9719 30.7891 62.8725 30.5634 62.8725 30.2307V28.4922H62.27V28.125H62.8725V27.4365L63.2511 27.3217V28.125H64.0773V28.4922ZM66.051 28.0561C66.3991 28.0561 66.6726 28.1632 66.8715 28.3774C67.0742 28.5878 67.1756 28.8728 67.1756 29.2323V30.9937H66.7969V29.2323C66.7969 28.9761 66.7281 28.7772 66.5904 28.6356C66.4565 28.4941 66.2652 28.4233 66.0166 28.4233C65.7412 28.4233 65.5175 28.5113 65.3453 28.6873C65.1732 28.8594 65.0871 29.1271 65.0871 29.4905V30.9937H64.7085V26.9775H65.0871V28.5725C65.3013 28.2283 65.6226 28.0561 66.051 28.0561ZM70.3749 28.125H70.7536V30.9937H70.3749V30.4315C70.111 30.8522 69.7247 31.0626 69.2159 31.0626C68.8067 31.0626 68.4567 30.9172 68.166 30.6265C67.8791 30.3358 67.7357 29.9801 67.7357 29.5594C67.7357 29.1386 67.8791 28.7829 68.166 28.4922C68.4567 28.2015 68.8067 28.0561 69.2159 28.0561C69.7247 28.0561 70.111 28.2665 70.3749 28.6873V28.125ZM68.4414 30.3684C68.6594 30.5864 68.9272 30.6954 69.2446 30.6954C69.5621 30.6954 69.8299 30.5864 70.0479 30.3684C70.2659 30.1465 70.3749 29.8768 70.3749 29.5594C70.3749 29.2419 70.2659 28.9741 70.0479 28.7561C69.8299 28.5343 69.5621 28.4233 69.2446 28.4233C68.9272 28.4233 68.6594 28.5343 68.4414 28.7561C68.2234 28.9741 68.1143 29.2419 68.1143 29.5594C68.1143 29.8768 68.2234 30.1465 68.4414 30.3684ZM72.8979 28.0561C73.246 28.0561 73.5195 28.1632 73.7184 28.3774C73.9211 28.5878 74.0225 28.8728 74.0225 29.2323V30.9937H73.6438V29.2323C73.6438 28.9761 73.575 28.7772 73.4373 28.6356C73.3034 28.4941 73.1121 28.4233 72.8635 28.4233C72.5881 28.4233 72.3644 28.5113 72.1922 28.6873C72.0201 28.8594 71.934 29.1271 71.934 29.4905V30.9937H71.5554V28.125H71.934V28.5725C72.1482 28.2283 72.4695 28.0561 72.8979 28.0561ZM76.321 27.0463C76.3746 26.9928 76.4396 26.966 76.5161 26.966C76.5926 26.966 76.6576 26.9928 76.7112 27.0463C76.7647 27.0999 76.7915 27.1649 76.7915 27.2414C76.7915 27.3179 76.7647 27.3829 76.7112 27.4365C76.6576 27.49 76.5926 27.5168 76.5161 27.5168C76.4396 27.5168 76.3746 27.49 76.321 27.4365C76.2675 27.3829 76.2407 27.3179 76.2407 27.2414C76.2407 27.1649 76.2675 27.0999 76.321 27.0463ZM76.3268 31.2232V28.125H76.7054V31.2232C76.7054 31.5675 76.6156 31.8257 76.4358 31.9978C76.256 32.1699 76.0016 32.2407 75.6727 32.2101V31.8429C75.8984 31.8658 76.0628 31.8295 76.1661 31.7339C76.2732 31.6383 76.3268 31.468 76.3268 31.2232ZM79.531 28.125H79.9097V30.9937H79.531V30.5462C79.3168 30.8905 78.9955 31.0626 78.5671 31.0626C78.219 31.0626 77.9436 30.9574 77.7409 30.747C77.542 30.5328 77.4425 30.246 77.4425 29.8864V28.125H77.8212V29.8864C77.8212 30.1427 77.8881 30.3416 78.022 30.4831C78.1597 30.6246 78.3529 30.6954 78.6015 30.6954C78.8769 30.6954 79.1007 30.6093 79.2728 30.4372C79.4449 30.2613 79.531 29.9916 79.531 29.6282V28.125ZM81.0091 28.8766C81.0091 29.0067 81.0664 29.1099 81.1812 29.1864C81.2959 29.2629 81.4356 29.3222 81.6 29.3643C81.7645 29.4064 81.929 29.4542 82.0935 29.5077C82.2579 29.5575 82.3975 29.6435 82.5123 29.7659C82.627 29.8845 82.6844 30.0413 82.6844 30.2364C82.6844 30.4812 82.5869 30.6801 82.3918 30.8331C82.2006 30.9861 81.9519 31.0626 81.6459 31.0626C81.3705 31.0626 81.1353 31.0014 80.9402 30.879C80.749 30.7566 80.6151 30.5979 80.5386 30.4028L80.8599 30.2134C80.9134 30.3626 81.0091 30.4812 81.1468 30.5692C81.2883 30.6533 81.4547 30.6954 81.6459 30.6954C81.8334 30.6954 81.9902 30.6591 82.1164 30.5864C82.2426 30.5099 82.3057 30.3932 82.3057 30.2364C82.3057 30.1063 82.2484 30.0031 82.1336 29.9266C82.0189 29.8501 81.8793 29.7908 81.7148 29.7487C81.5503 29.7066 81.3858 29.6607 81.2214 29.611C81.0569 29.5575 80.9173 29.4714 80.8025 29.3528C80.6878 29.2304 80.6304 29.0717 80.6304 28.8766C80.6304 28.6433 80.7222 28.4482 80.9058 28.2914C81.0932 28.1346 81.3285 28.0561 81.6115 28.0561C81.8448 28.0561 82.0495 28.1097 82.2254 28.2168C82.4014 28.3201 82.5314 28.4616 82.6156 28.6414L82.3 28.825C82.1891 28.5572 81.9596 28.4233 81.6115 28.4233C81.447 28.4233 81.3055 28.4635 81.1869 28.5438C81.0684 28.6203 81.0091 28.7313 81.0091 28.8766ZM84.7245 28.4922H83.8983V30.2307C83.8983 30.3875 83.9289 30.5003 83.9901 30.5692C84.0513 30.6342 84.1431 30.6686 84.2655 30.6724C84.3879 30.6724 84.5409 30.6686 84.7245 30.661V30.9937C84.3229 31.0549 84.0207 31.0263 83.818 30.9077C83.6191 30.7891 83.5196 30.5634 83.5196 30.2307V28.4922H82.9172V28.125H83.5196V27.4365L83.8983 27.3217V28.125H84.7245V28.4922ZM89.2571 28.125H89.6358V30.9937H89.2571V30.4315C88.9932 30.8522 88.6069 31.0626 88.0981 31.0626C87.6889 31.0626 87.3389 30.9172 87.0482 30.6265C86.7613 30.3358 86.6179 29.9801 86.6179 29.5594C86.6179 29.1386 86.7613 28.7829 87.0482 28.4922C87.3389 28.2015 87.6889 28.0561 88.0981 28.0561C88.6069 28.0561 88.9932 28.2665 89.2571 28.6873V28.125ZM87.3236 30.3684C87.5416 30.5864 87.8094 30.6954 88.1268 30.6954C88.4443 30.6954 88.7121 30.5864 88.9301 30.3684C89.1481 30.1465 89.2571 29.8768 89.2571 29.5594C89.2571 29.2419 89.1481 28.9741 88.9301 28.7561C88.7121 28.5343 88.4443 28.4233 88.1268 28.4233C87.8094 28.4233 87.5416 28.5343 87.3236 28.7561C87.1056 28.9741 86.9965 29.2419 86.9965 29.5594C86.9965 29.8768 87.1056 30.1465 87.3236 30.3684ZM91.7801 28.0561C92.1282 28.0561 92.4017 28.1632 92.6006 28.3774C92.8033 28.5878 92.9047 28.8728 92.9047 29.2323V30.9937H92.526V29.2323C92.526 28.9761 92.4572 28.7772 92.3195 28.6356C92.1856 28.4941 91.9943 28.4233 91.7457 28.4233C91.4703 28.4233 91.2466 28.5113 91.0744 28.6873C90.9023 28.8594 90.8162 29.1271 90.8162 29.4905V30.9937H90.4376V28.125H90.8162V28.5725C91.0304 28.2283 91.3517 28.0561 91.7801 28.0561ZM97.8023 30.9937L97.4294 30.0069H95.5245L95.1516 30.9937H94.727L96.2704 26.9775H96.6835L98.2269 30.9937H97.8023ZM95.668 29.6282H97.2859L96.477 27.4767L95.668 29.6282ZM100.223 28.0561C100.632 28.0561 100.98 28.2015 101.267 28.4922C101.558 28.7829 101.703 29.1386 101.703 29.5594C101.703 29.9801 101.558 30.3358 101.267 30.6265C100.98 30.9172 100.632 31.0626 100.223 31.0626C99.7142 31.0626 99.3278 30.8522 99.0639 30.4315V32.1412H98.6852V28.125H99.0639V28.6873C99.3278 28.2665 99.7142 28.0561 100.223 28.0561ZM99.3909 30.3684C99.609 30.5864 99.8767 30.6954 100.194 30.6954C100.512 30.6954 100.779 30.5864 100.997 30.3684C101.215 30.1465 101.324 29.8768 101.324 29.5594C101.324 29.2419 101.215 28.9741 100.997 28.7561C100.779 28.5343 100.512 28.4233 100.194 28.4233C99.8767 28.4233 99.609 28.5343 99.3909 28.7561C99.1729 28.9741 99.0639 29.2419 99.0639 29.5594C99.0639 29.8768 99.1729 30.1465 99.3909 30.3684ZM103.87 28.0561C104.28 28.0561 104.628 28.2015 104.915 28.4922C105.205 28.7829 105.351 29.1386 105.351 29.5594C105.351 29.9801 105.205 30.3358 104.915 30.6265C104.628 30.9172 104.28 31.0626 103.87 31.0626C103.362 31.0626 102.975 30.8522 102.711 30.4315V32.1412H102.333V28.125H102.711V28.6873C102.975 28.2665 103.362 28.0561 103.87 28.0561ZM103.039 30.3684C103.257 30.5864 103.524 30.6954 103.842 30.6954C104.159 30.6954 104.427 30.5864 104.645 30.3684C104.863 30.1465 104.972 29.8768 104.972 29.5594C104.972 29.2419 104.863 28.9741 104.645 28.7561C104.427 28.5343 104.159 28.4233 103.842 28.4233C103.524 28.4233 103.257 28.5343 103.039 28.7561C102.82 28.9741 102.711 29.2419 102.711 29.5594C102.711 29.8768 102.82 30.1465 103.039 30.3684Z" fill="#828282"/>
</svg>
