<svg width="50" height="50" viewBox="0 0 50 50" fill="none" xmlns="http://www.w3.org/2000/svg">
<path d="M0 20C0 8.9543 8.95431 0 20 0H30C41.0457 0 50 8.95431 50 20V50H20C8.9543 50 0 41.0457 0 30V20Z" fill="#990000"/>
<path d="M28.1498 21.3999C27.3834 21.3973 26.6239 21.5458 25.9149 21.837C25.2059 22.1282 24.5613 22.5563 24.018 23.0969C23.4746 23.6375 23.0432 24.2799 22.7484 24.9873C22.4535 25.6948 22.3011 26.4535 22.2998 27.2199V33.0999C22.2998 33.3386 22.3946 33.5676 22.5634 33.7363C22.7322 33.9051 22.9611 33.9999 23.1998 33.9999H25.2998C25.5385 33.9999 25.7674 33.9051 25.9362 33.7363C26.105 33.5676 26.1998 33.3386 26.1998 33.0999V27.2199C26.1996 26.9473 26.2569 26.6778 26.3678 26.4288C26.4788 26.1798 26.641 25.957 26.8439 25.7749C27.0467 25.5928 27.2857 25.4555 27.5452 25.3719C27.8046 25.2884 28.0788 25.2604 28.3498 25.2899C28.8358 25.3512 29.2825 25.5886 29.605 25.9572C29.9276 26.3259 30.1036 26.8001 30.0998 27.2899V33.0999C30.0998 33.3386 30.1946 33.5676 30.3634 33.7363C30.5322 33.9051 30.7611 33.9999 30.9998 33.9999H33.0998C33.3385 33.9999 33.5674 33.9051 33.7362 33.7363C33.905 33.5676 33.9998 33.3386 33.9998 33.0999V27.2199C33.9985 26.4535 33.8461 25.6948 33.5512 24.9873C33.2564 24.2799 32.825 23.6375 32.2816 23.0969C31.7383 22.5563 31.0937 22.1282 30.3847 21.837C29.6757 21.5458 28.9163 21.3973 28.1498 21.3999Z" fill="white"/>
<path d="M19.6 22.2998H16.9C16.4029 22.2998 16 22.7027 16 23.1998V33.0998C16 33.5969 16.4029 33.9998 16.9 33.9998H19.6C20.0971 33.9998 20.5 33.5969 20.5 33.0998V23.1998C20.5 22.7027 20.0971 22.2998 19.6 22.2998Z" fill="white"/>
<path d="M18.25 20.5C19.4926 20.5 20.5 19.4926 20.5 18.25C20.5 17.0074 19.4926 16 18.25 16C17.0074 16 16 17.0074 16 18.25C16 19.4926 17.0074 20.5 18.25 20.5Z" fill="white"/>
</svg>
