<svg width="172" height="42" viewBox="0 0 172 42" fill="none" xmlns="http://www.w3.org/2000/svg">
<path d="M15.0823 0.559444C14.6005 1.29692 13.8045 2.80218 12.2544 5.88342C11.3012 7.80288 10.1596 9.985 9.74064 10.7326C8.37905 13.1471 7.89725 14.0664 6.46234 16.9456C5.68728 18.5013 4.30473 21.1381 3.40399 22.805C2.49276 24.4719 1.69676 25.9468 1.63391 26.0781C1.57107 26.2095 1.20449 26.9571 0.816955 27.7349C0.418951 28.5128 0.104736 29.2099 0.104736 29.2705C0.104736 29.4018 1.52917 29.4726 6.44139 29.5837L9.26932 29.6443L10.0234 28.3007C11.1546 26.2701 11.5002 25.5629 13.1342 22.017C13.9616 20.2288 15.0928 17.8548 15.6479 16.7334C16.2239 15.5615 16.6534 14.5715 16.6534 14.3998C16.6534 14.228 16.5381 13.9451 16.402 13.7532C16.2554 13.5613 16.0145 13.2178 15.8469 12.9854C15.6898 12.743 15.5222 12.551 15.4908 12.551C15.386 12.551 13.2703 16.0768 12.8095 17.0163C12.5686 17.5012 12.003 18.5215 11.5421 19.2893C11.0813 20.0571 10.3062 21.4209 9.81396 22.3301C9.32169 23.2293 8.77705 24.1587 8.60947 24.4011L8.3162 24.8254L7.64588 24.8052C6.88129 24.785 5.4778 24.5022 5.38354 24.3607C5.31022 24.2496 5.49875 23.8758 6.77655 21.5927C9.52069 16.6728 10.9242 14.1068 12.7466 10.7023L14.789 6.88356L15.0613 7.25735C15.1975 7.45939 16.0249 8.97476 16.8838 10.6214C18.2558 13.2481 18.4444 13.6623 18.4025 13.9957C18.3711 14.2078 18.015 14.9352 17.5541 15.7131C17.1247 16.4505 16.4334 17.7032 16.0145 18.4912C14.8414 20.7239 14.7576 20.2693 17.0933 24.7446C18.1616 26.7954 19.188 28.8361 19.3765 29.2907C19.5756 29.7554 19.7641 30.1292 19.806 30.1292C19.9526 30.1292 20.7277 28.8159 22.0474 26.3408C22.7805 24.9467 23.7127 23.2394 24.1002 22.5423C24.4982 21.8452 24.8229 21.1583 24.8229 21.0269C24.8229 20.8855 24.1107 19.4308 23.2414 17.7942C22.3825 16.1576 21.6389 14.6624 21.6075 14.4604C21.5551 14.1371 21.6703 13.8845 22.5396 12.3389C23.0843 11.369 23.8803 9.94459 24.2992 9.1667C25.2314 7.43919 25.7446 6.59059 25.8808 6.59059C25.9332 6.59059 26.1426 6.91386 26.3521 7.31796C26.5616 7.71195 27.0015 8.49994 27.3366 9.05557C29.002 11.8741 35.2339 23.502 35.1711 23.6839C35.1501 23.7445 34.5217 23.9263 33.7676 24.0779C32.6259 24.3102 32.385 24.3304 32.207 24.2193C32.0184 24.1082 26.4359 15.117 25.2314 12.9955L24.7496 12.1469L24.2888 12.4399C24.0374 12.6116 23.6708 12.9046 23.4718 13.0965C23.1157 13.4501 23.1157 13.4602 23.2414 13.8845C23.3147 14.127 24.5087 16.4505 25.8808 19.0671C27.2633 21.6735 29.0334 25.078 29.8294 26.6237L31.2643 29.4422L36.1765 29.3816C38.8683 29.3513 41.0992 29.3109 41.1202 29.2907C41.1411 29.2705 40.387 27.7349 39.4444 25.8761C37.402 21.8654 26.7606 1.49897 26.3521 0.801903L26.0588 0.327089L25.8703 0.549341C25.5666 0.933233 24.6449 2.59003 22.5501 6.54007C21.4608 8.59086 20.4344 10.48 20.2773 10.7225L19.9736 11.1771L19.7222 10.7023C19.3975 10.0759 17.9207 6.6613 16.4962 3.20628C15.8678 1.70102 15.3337 0.448318 15.3022 0.407907C15.2603 0.367498 15.1661 0.438215 15.0823 0.559444ZM20.6753 17.1173C21.2095 18.0669 21.995 19.8955 21.995 20.2187C21.995 20.4208 21.6598 20.9966 20.9476 22.0372C20.3716 22.8757 19.8479 23.5626 19.7955 23.5626C19.5651 23.5626 18.015 21.1785 18.015 20.8148C18.015 20.6531 18.2768 20.0874 18.6434 19.4712C18.989 18.8953 19.4918 17.9861 19.7641 17.4507C20.0259 16.9254 20.2563 16.491 20.2773 16.491C20.2982 16.491 20.4763 16.7738 20.6753 17.1173Z" fill="#003399"/>
<path d="M0 31.8971V32.3517H21H42V31.8971V31.4425H21H0V31.8971Z" fill="#003399"/>
<path d="M0 34.3217V34.7763H21H42V34.3217V33.8671H21H0V34.3217Z" fill="#003399"/>
<path d="M55.572 28.574L59.01 33.83L62.466 28.574L63.222 35H66.426L64.392 21.77L59.01 29.456L53.646 21.77L51.612 35H54.816L55.572 28.574ZM67.6073 30.86C67.6073 31.724 67.8113 32.48 68.2192 33.128C68.6273 33.776 69.1913 34.28 69.9113 34.64C70.6313 35 71.4413 35.18 72.3413 35.18C73.2413 35.18 74.0453 35 74.7533 34.64C75.4733 34.28 76.0373 33.776 76.4453 33.128C76.8653 32.48 77.0753 31.724 77.0753 30.86C77.0753 29.984 76.8653 29.222 76.4453 28.574C76.0373 27.926 75.4733 27.422 74.7533 27.062C74.0453 26.702 73.2413 26.522 72.3413 26.522C71.4413 26.522 70.6313 26.702 69.9113 27.062C69.1913 27.422 68.6273 27.926 68.2192 28.574C67.8113 29.222 67.6073 29.984 67.6073 30.86ZM70.3973 30.86C70.3973 30.428 70.4873 30.056 70.6673 29.744C70.8473 29.432 71.0813 29.192 71.3693 29.024C71.6573 28.856 71.9813 28.772 72.3413 28.772C72.6893 28.772 73.0073 28.856 73.2953 29.024C73.5953 29.192 73.8293 29.432 73.9973 29.744C74.1773 30.056 74.2673 30.428 74.2673 30.86C74.2673 31.292 74.1773 31.664 73.9973 31.976C73.8293 32.276 73.5953 32.51 73.2953 32.678C73.0073 32.846 72.6893 32.93 72.3413 32.93C71.9813 32.93 71.6573 32.846 71.3693 32.678C71.0813 32.51 70.8473 32.276 70.6673 31.976C70.4873 31.664 70.3973 31.292 70.3973 30.86ZM84.0749 29.96V35H86.9009V29.672C86.9009 28.676 86.6669 27.902 86.1989 27.35C85.7309 26.798 84.9809 26.522 83.9489 26.522C83.3369 26.522 82.8209 26.648 82.4009 26.9C81.9929 27.152 81.6689 27.506 81.4289 27.962V26.72H78.6929V35H81.4289V29.96C81.4289 29.636 81.4889 29.36 81.6089 29.132C81.7289 28.904 81.8969 28.73 82.1129 28.61C82.3289 28.49 82.5809 28.43 82.8689 28.43C83.3009 28.43 83.6069 28.562 83.7869 28.826C83.9789 29.09 84.0749 29.468 84.0749 29.96ZM88.8844 23.606C88.8844 24.038 89.0404 24.392 89.3524 24.668C89.6644 24.944 90.0364 25.082 90.4684 25.082C90.9124 25.082 91.2844 24.944 91.5844 24.668C91.8964 24.392 92.0524 24.038 92.0524 23.606C92.0524 23.174 91.8964 22.826 91.5844 22.562C91.2844 22.286 90.9124 22.148 90.4684 22.148C90.0364 22.148 89.6644 22.286 89.3524 22.562C89.0404 22.826 88.8844 23.174 88.8844 23.606ZM89.1544 26.72V35H91.7824V26.72H89.1544Z" fill="#003399"/>
<path d="M97.531 28.574L100.969 33.83L104.425 28.574L105.181 35H108.385L106.351 21.77L100.969 29.456L95.605 21.77L93.571 35H96.775L97.531 28.574ZM114.264 35.18C115.32 35.18 116.214 34.976 116.946 34.568C117.69 34.16 118.278 33.548 118.71 32.732L116.28 32.138C116.076 32.498 115.8 32.768 115.452 32.948C115.116 33.128 114.708 33.218 114.228 33.218C113.808 33.218 113.454 33.128 113.166 32.948C112.878 32.756 112.662 32.48 112.518 32.12C112.374 31.76 112.302 31.328 112.302 30.824C112.314 30.272 112.386 29.816 112.518 29.456C112.662 29.084 112.872 28.808 113.148 28.628C113.424 28.448 113.766 28.358 114.174 28.358C114.498 28.358 114.78 28.43 115.02 28.574C115.26 28.718 115.446 28.922 115.578 29.186C115.71 29.45 115.776 29.762 115.776 30.122C115.776 30.206 115.752 30.314 115.704 30.446C115.668 30.566 115.62 30.668 115.56 30.752L116.208 29.924H111.096V31.436H118.656C118.68 31.352 118.692 31.25 118.692 31.13C118.692 30.998 118.692 30.866 118.692 30.734C118.692 29.846 118.518 29.09 118.17 28.466C117.822 27.842 117.318 27.368 116.658 27.044C115.998 26.708 115.188 26.54 114.228 26.54C113.268 26.54 112.434 26.714 111.726 27.062C111.03 27.41 110.496 27.908 110.124 28.556C109.752 29.204 109.566 29.972 109.566 30.86C109.566 31.736 109.758 32.498 110.142 33.146C110.526 33.794 111.066 34.298 111.762 34.658C112.47 35.006 113.304 35.18 114.264 35.18ZM123.053 26.72H120.371V35H123.053V26.72ZM125.447 29.528L126.617 27.206C126.473 26.99 126.263 26.822 125.987 26.702C125.711 26.582 125.423 26.522 125.123 26.522C124.667 26.522 124.229 26.672 123.809 26.972C123.389 27.272 123.047 27.68 122.783 28.196C122.531 28.712 122.405 29.3 122.405 29.96L123.053 30.914C123.053 30.518 123.107 30.182 123.215 29.906C123.323 29.63 123.479 29.42 123.683 29.276C123.887 29.132 124.121 29.06 124.385 29.06C124.625 29.06 124.823 29.102 124.979 29.186C125.147 29.27 125.303 29.384 125.447 29.528ZM129.793 30.86C129.793 30.452 129.889 30.086 130.081 29.762C130.273 29.438 130.537 29.18 130.873 28.988C131.221 28.796 131.593 28.7 131.989 28.7C132.289 28.7 132.595 28.748 132.907 28.844C133.219 28.94 133.507 29.078 133.771 29.258C134.047 29.438 134.269 29.66 134.437 29.924V27.26C134.149 27.056 133.789 26.888 133.357 26.756C132.925 26.612 132.397 26.54 131.773 26.54C130.861 26.54 130.039 26.72 129.307 27.08C128.587 27.44 128.017 27.944 127.597 28.592C127.189 29.228 126.985 29.984 126.985 30.86C126.985 31.724 127.189 32.48 127.597 33.128C128.017 33.776 128.587 34.28 129.307 34.64C130.039 35 130.861 35.18 131.773 35.18C132.397 35.18 132.925 35.114 133.357 34.982C133.789 34.838 134.149 34.652 134.437 34.424V31.778C134.269 32.042 134.053 32.264 133.789 32.444C133.537 32.624 133.255 32.768 132.943 32.876C132.643 32.972 132.325 33.02 131.989 33.02C131.593 33.02 131.221 32.93 130.873 32.75C130.537 32.57 130.273 32.324 130.081 32.012C129.889 31.688 129.793 31.304 129.793 30.86ZM139.138 20.96H136.402V35H139.138V20.96ZM141.784 29.96V35H144.502V29.564C144.502 28.88 144.406 28.304 144.214 27.836C144.022 27.368 143.716 27.014 143.296 26.774C142.888 26.534 142.342 26.414 141.658 26.414C140.974 26.414 140.41 26.576 139.966 26.9C139.534 27.212 139.21 27.638 138.994 28.178C138.778 28.706 138.67 29.3 138.67 29.96H139.138C139.138 29.636 139.198 29.366 139.318 29.15C139.438 28.922 139.606 28.748 139.822 28.628C140.038 28.496 140.29 28.43 140.578 28.43C141.022 28.43 141.334 28.562 141.514 28.826C141.694 29.09 141.784 29.468 141.784 29.96ZM148.738 32.408C148.738 32.204 148.786 32.036 148.882 31.904C148.978 31.76 149.122 31.652 149.314 31.58C149.506 31.508 149.764 31.472 150.088 31.472C150.508 31.472 150.904 31.532 151.276 31.652C151.66 31.76 151.996 31.922 152.284 32.138V30.932C152.14 30.776 151.924 30.626 151.636 30.482C151.348 30.338 151 30.218 150.592 30.122C150.196 30.026 149.746 29.978 149.242 29.978C148.21 29.978 147.412 30.212 146.848 30.68C146.284 31.136 146.002 31.76 146.002 32.552C146.002 33.116 146.134 33.596 146.398 33.992C146.674 34.388 147.034 34.688 147.478 34.892C147.934 35.084 148.426 35.18 148.954 35.18C149.482 35.18 149.974 35.09 150.43 34.91C150.886 34.718 151.258 34.442 151.546 34.082C151.834 33.71 151.978 33.26 151.978 32.732L151.69 31.652C151.69 32.036 151.606 32.36 151.438 32.624C151.27 32.888 151.054 33.086 150.79 33.218C150.526 33.35 150.238 33.416 149.926 33.416C149.71 33.416 149.512 33.38 149.332 33.308C149.152 33.224 149.008 33.11 148.9 32.966C148.792 32.81 148.738 32.624 148.738 32.408ZM147.532 29.258C147.652 29.186 147.844 29.096 148.108 28.988C148.372 28.868 148.678 28.766 149.026 28.682C149.386 28.598 149.752 28.556 150.124 28.556C150.376 28.556 150.598 28.58 150.79 28.628C150.994 28.676 151.162 28.754 151.294 28.862C151.426 28.97 151.522 29.102 151.582 29.258C151.654 29.402 151.69 29.576 151.69 29.78V35H154.3V29.168C154.3 28.592 154.132 28.106 153.796 27.71C153.46 27.314 153.004 27.014 152.428 26.81C151.852 26.594 151.198 26.486 150.466 26.486C149.686 26.486 148.966 26.588 148.306 26.792C147.646 26.996 147.082 27.212 146.614 27.44L147.532 29.258ZM161.717 29.96V35H164.543V29.672C164.543 28.676 164.309 27.902 163.841 27.35C163.373 26.798 162.623 26.522 161.591 26.522C160.979 26.522 160.463 26.648 160.043 26.9C159.635 27.152 159.311 27.506 159.071 27.962V26.72H156.335V35H159.071V29.96C159.071 29.636 159.131 29.36 159.251 29.132C159.371 28.904 159.539 28.73 159.755 28.61C159.971 28.49 160.223 28.43 160.511 28.43C160.943 28.43 161.249 28.562 161.429 28.826C161.621 29.09 161.717 29.468 161.717 29.96ZM165.717 26.72V28.97H171.261V26.72H165.717ZM167.175 23.84V35H169.785V23.84H167.175Z" fill="#FF6600"/>
</svg>
