<svg width="27" height="27" viewBox="0 0 27 27" fill="none" xmlns="http://www.w3.org/2000/svg">
<path d="M26.6248 22.4514L22.8181 26.2276C22.2562 26.8039 21.5114 26.9991 20.786 27C17.5782 26.9039 14.546 25.3282 12.0565 23.7102C7.96995 20.7372 4.22042 17.0509 1.86714 12.5962C0.964579 10.7282 -0.094451 8.34475 0.00673155 6.2597C0.0157541 5.47535 0.227119 4.70556 0.779517 4.19998L4.5862 0.395209C5.37667 -0.277158 6.14111 -0.0446882 6.64696 0.738492L9.70945 6.54579C10.0318 7.23377 9.84688 7.97092 9.36597 8.46252L7.9635 9.86427C7.87692 9.98287 7.82179 10.1179 7.8204 10.2648C8.35819 12.3465 9.98744 14.2653 11.4267 15.5857C12.866 16.9062 14.413 18.6952 16.4212 19.1187C16.6694 19.1879 16.9735 19.2123 17.1511 19.0472L18.7825 17.388C19.3449 16.9617 20.157 16.7533 20.7574 17.1019H20.786L26.31 20.3631C27.1209 20.8714 27.2055 21.8538 26.6248 22.4514V22.4514Z" fill="#F2F2F2"/>
</svg>
