<svg width="236" height="50" viewBox="0 0 236 50" fill="none" xmlns="http://www.w3.org/2000/svg">
<path d="M0 20C0 8.9543 8.95431 0 20 0H30C41.0457 0 50 8.95431 50 20V50H20C8.9543 50 0 41.0457 0 30V20Z" fill="#990000"/>
<path d="M36 15.9998C35.0424 16.6753 33.9821 17.1919 32.86 17.5298C32.2577 16.8373 31.4573 16.3465 30.567 16.1237C29.6767 15.901 28.7395 15.957 27.8821 16.2843C27.0247 16.6115 26.2884 17.1942 25.773 17.9535C25.2575 18.7128 24.9877 19.6121 25 20.5298V21.5298C23.2426 21.5754 21.5013 21.1856 19.931 20.3952C18.3607 19.6049 17.0103 18.4384 16 16.9998C16 16.9998 12 25.9998 21 29.9998C18.9405 31.3978 16.4872 32.0987 14 31.9998C23 36.9998 34 31.9998 34 20.4998C33.9991 20.2213 33.9723 19.9434 33.92 19.6698C34.9406 18.6633 35.6608 17.3925 36 15.9998V15.9998Z" stroke="#FAFAF9" stroke-width="2" stroke-linecap="round" stroke-linejoin="round"/>
<path d="M93 20C93 8.9543 101.954 0 113 0H123C134.046 0 143 8.95431 143 20V50H113C101.954 50 93 41.0457 93 30V20Z" fill="#990000"/>
<path d="M124 15H121C119.674 15 118.402 15.5268 117.464 16.4645C116.527 17.4021 116 18.6739 116 20V23H113V27H116V35H120V27H123L124 23H120V20C120 19.7348 120.105 19.4804 120.293 19.2929C120.48 19.1054 120.735 19 121 19H124V15Z" stroke="#FAFAF9" stroke-width="2" stroke-linecap="round" stroke-linejoin="round"/>
<path d="M186 20C186 8.9543 194.954 0 206 0H216C227.046 0 236 8.95431 236 20V50H206C194.954 50 186 41.0457 186 30V20Z" fill="#990000"/>
<path d="M216 15H206C203.239 15 201 17.2386 201 20V30C201 32.7614 203.239 35 206 35H216C218.761 35 221 32.7614 221 30V20C221 17.2386 218.761 15 216 15Z" stroke="#FAFAF9" stroke-width="2" stroke-linecap="round" stroke-linejoin="round"/>
<path d="M215 24.3698C215.124 25.2021 214.981 26.052 214.594 26.7988C214.206 27.5456 213.593 28.1512 212.842 28.5295C212.09 28.9077 211.239 29.0394 210.408 28.9057C209.577 28.7721 208.81 28.3799 208.215 27.785C207.62 27.1901 207.228 26.4227 207.094 25.592C206.961 24.7614 207.092 23.9097 207.471 23.1582C207.849 22.4067 208.454 21.7936 209.201 21.4061C209.948 21.0186 210.798 20.8764 211.63 20.9998C212.479 21.1257 213.265 21.5213 213.872 22.1281C214.479 22.735 214.874 23.5209 215 24.3698Z" stroke="#FAFAF9" stroke-width="2" stroke-linecap="round" stroke-linejoin="round"/>
<path d="M216.5 19.5H216.51" stroke="#FAFAF9" stroke-width="2" stroke-linecap="round" stroke-linejoin="round"/>
</svg>
