<svg width="38" height="17" viewBox="0 0 38 17" fill="none" xmlns="http://www.w3.org/2000/svg">
<path d="M8.86957 0.530609C4.4332 0.530609 0.836914 4.1269 0.836914 8.56326C0.836914 12.9996 4.4332 16.5959 8.86957 16.5959C13.3059 16.5959 16.9022 12.9996 16.9022 8.56326C16.9022 4.1269 13.3059 0.530609 8.86957 0.530609ZM6.90324 11.8926H5.27663V6.65802H6.90324V11.8926ZM6.07989 6.01541C5.56614 6.01541 5.23396 5.65143 5.23396 5.20126C5.23396 4.74189 5.57618 4.38879 6.10081 4.38879C6.62544 4.38879 6.94675 4.74189 6.95679 5.20126C6.95679 5.65143 6.62544 6.01541 6.07989 6.01541ZM12.8441 11.8926H11.2174V8.99167C11.2174 8.31643 10.9815 7.85789 10.3933 7.85789C9.94394 7.85789 9.67702 8.16832 9.55904 8.46704C9.51553 8.5733 9.50465 8.72392 9.50465 8.87369V11.8918H7.8772V8.3273C7.8772 7.67381 7.85628 7.12743 7.83453 6.65718H9.24777L9.32224 7.3843H9.35487C9.56908 7.04292 10.0937 6.5392 10.9714 6.5392C12.0416 6.5392 12.8441 7.25628 12.8441 8.79755V11.8926V11.8926Z" fill="#38ABFF"/>
<path d="M37.6528 8.47959C37.6528 4.08827 34.0922 0.530609 29.7039 0.530609C25.3125 0.530609 21.7549 4.08827 21.7549 8.47959C21.7549 12.4461 24.6607 15.735 28.4618 16.3307V10.7778H26.4433V8.48009H28.4618V6.72783C28.4618 4.73612 29.6467 3.63618 31.4631 3.63618C32.333 3.63618 33.2436 3.79118 33.2436 3.79118V5.74713H32.2396C31.2539 5.74713 30.9459 6.36069 30.9459 6.98916V8.47959H33.1502L32.796 10.7773H30.9459V16.3302C34.744 15.7345 37.6528 12.4456 37.6528 8.47909V8.47959Z" fill="#183FA2"/>
</svg>
